solid CATIA STL
  facet normal  1.000000e+000  -0.000000e+000  0.000000e+000
    outer loop
      vertex  2.500000e-001 -1.020000e+000  3.500000e+000
      vertex  2.500000e-001 -1.520000e+000  3.500000e+000
      vertex  2.500000e-001 -1.020000e+000 -2.783494e+000
    endloop
  endfacet
  facet normal  1.000000e+000  0.000000e+000  0.000000e+000
    outer loop
      vertex  2.500000e-001 -1.020000e+000 -2.783494e+000
      vertex  2.500000e-001 -1.520000e+000  3.500000e+000
      vertex  2.500000e-001 -1.520000e+000 -2.783494e+000
    endloop
  endfacet
  facet normal  1.000000e+000  -0.000000e+000  0.000000e+000
    outer loop
      vertex  2.500000e-001 -1.020000e+000 -2.783494e+000
      vertex  2.500000e-001 -1.520000e+000 -2.783494e+000
      vertex  2.500000e-001 -8.950000e-001 -3.000000e+000
    endloop
  endfacet
  facet normal  1.000000e+000  0.000000e+000  0.000000e+000
    outer loop
      vertex  2.500000e-001 -8.950000e-001 -3.000000e+000
      vertex  2.500000e-001 -1.520000e+000 -2.783494e+000
      vertex  2.500000e-001 -1.645000e+000 -3.000000e+000
    endloop
  endfacet
  facet normal  1.000000e+000  -0.000000e+000  0.000000e+000
    outer loop
      vertex  2.500000e-001 -8.950000e-001 -3.000000e+000
      vertex  2.500000e-001 -1.645000e+000 -3.000000e+000
      vertex  2.500000e-001 -8.950000e-001 -3.500000e+000
    endloop
  endfacet
  facet normal  1.000000e+000  0.000000e+000  0.000000e+000
    outer loop
      vertex  2.500000e-001 -8.950000e-001 -3.500000e+000
      vertex  2.500000e-001 -1.645000e+000 -3.000000e+000
      vertex  2.500000e-001 -1.645000e+000 -3.500000e+000
    endloop
  endfacet
  facet normal  1.000000e+000  -0.000000e+000  0.000000e+000
    outer loop
      vertex  2.500000e-001 -8.950000e-001 -3.500000e+000
      vertex  2.500000e-001 -1.645000e+000 -3.500000e+000
      vertex  2.500000e-001 -1.020000e+000 -3.716506e+000
    endloop
  endfacet
  facet normal  1.000000e+000  0.000000e+000  0.000000e+000
    outer loop
      vertex  2.500000e-001 -1.020000e+000 -3.716506e+000
      vertex  2.500000e-001 -1.645000e+000 -3.500000e+000
      vertex  2.500000e-001 -1.520000e+000 -3.716506e+000
    endloop
  endfacet
  facet normal  9.999999e-001  -0.000000e+000  0.000000e+000
    outer loop
      vertex  2.500000e-001 -1.020000e+000 -3.716506e+000
      vertex  2.500000e-001 -1.520000e+000 -3.716506e+000
      vertex  2.500000e-001 -1.020000e+000 -2.600000e+001
    endloop
  endfacet
  facet normal  9.999999e-001  0.000000e+000  0.000000e+000
    outer loop
      vertex  2.500000e-001 -1.020000e+000 -2.600000e+001
      vertex  2.500000e-001 -1.520000e+000 -3.716506e+000
      vertex  2.500000e-001 -1.520000e+000 -9.831872e+000
    endloop
  endfacet
  facet normal  1.000000e+000  0.000000e+000  0.000000e+000
    outer loop
      vertex  2.500000e-001 -1.020000e+000 -2.600000e+001
      vertex  2.500000e-001 -1.520000e+000 -9.831872e+000
      vertex  2.500000e-001 -1.520000e+000 -2.600000e+001
    endloop
  endfacet
  facet normal -1.000000e+000  0.000000e+000  0.000000e+000
    outer loop
      vertex -2.500000e-001 -1.520000e+000 -2.600000e+001
      vertex -2.500000e-001 -1.520000e+000 -9.831872e+000
      vertex -2.500000e-001 -1.020000e+000 -2.600000e+001
    endloop
  endfacet
  facet normal -9.999999e-001  0.000000e+000  0.000000e+000
    outer loop
      vertex -2.500000e-001 -1.020000e+000 -2.600000e+001
      vertex -2.500000e-001 -1.520000e+000 -9.831872e+000
      vertex -2.500000e-001 -1.520000e+000 -3.716506e+000
    endloop
  endfacet
  facet normal -9.999999e-001  0.000000e+000  0.000000e+000
    outer loop
      vertex -2.500000e-001 -1.020000e+000 -2.600000e+001
      vertex -2.500000e-001 -1.520000e+000 -3.716506e+000
      vertex -2.500000e-001 -1.020000e+000 -3.716506e+000
    endloop
  endfacet
  facet normal -1.000000e+000  0.000000e+000  0.000000e+000
    outer loop
      vertex -2.500000e-001 -1.020000e+000 -3.716506e+000
      vertex -2.500000e-001 -1.520000e+000 -3.716506e+000
      vertex -2.500000e-001 -1.645000e+000 -3.500000e+000
    endloop
  endfacet
  facet normal -1.000000e+000  0.000000e+000  0.000000e+000
    outer loop
      vertex -2.500000e-001 -1.020000e+000 -3.716506e+000
      vertex -2.500000e-001 -1.645000e+000 -3.500000e+000
      vertex -2.500000e-001 -8.950000e-001 -3.500000e+000
    endloop
  endfacet
  facet normal -1.000000e+000  0.000000e+000  0.000000e+000
    outer loop
      vertex -2.500000e-001 -8.950000e-001 -3.500000e+000
      vertex -2.500000e-001 -1.645000e+000 -3.500000e+000
      vertex -2.500000e-001 -1.645000e+000 -3.000000e+000
    endloop
  endfacet
  facet normal -1.000000e+000  0.000000e+000  0.000000e+000
    outer loop
      vertex -2.500000e-001 -8.950000e-001 -3.500000e+000
      vertex -2.500000e-001 -1.645000e+000 -3.000000e+000
      vertex -2.500000e-001 -8.950000e-001 -3.000000e+000
    endloop
  endfacet
  facet normal -1.000000e+000  0.000000e+000  0.000000e+000
    outer loop
      vertex -2.500000e-001 -8.950000e-001 -3.000000e+000
      vertex -2.500000e-001 -1.645000e+000 -3.000000e+000
      vertex -2.500000e-001 -1.520000e+000 -2.783494e+000
    endloop
  endfacet
  facet normal -1.000000e+000  0.000000e+000  0.000000e+000
    outer loop
      vertex -2.500000e-001 -8.950000e-001 -3.000000e+000
      vertex -2.500000e-001 -1.520000e+000 -2.783494e+000
      vertex -2.500000e-001 -1.020000e+000 -2.783494e+000
    endloop
  endfacet
  facet normal -1.000000e+000  0.000000e+000  0.000000e+000
    outer loop
      vertex -2.500000e-001 -1.020000e+000 -2.783494e+000
      vertex -2.500000e-001 -1.520000e+000 -2.783494e+000
      vertex -2.500000e-001 -1.520000e+000  3.500000e+000
    endloop
  endfacet
  facet normal -1.000000e+000  0.000000e+000  0.000000e+000
    outer loop
      vertex -2.500000e-001 -1.020000e+000 -2.783494e+000
      vertex -2.500000e-001 -1.520000e+000  3.500000e+000
      vertex -2.500000e-001 -1.020000e+000  3.500000e+000
    endloop
  endfacet
  facet normal  0.000000e+000  0.000000e+000  1.000000e+000
    outer loop
      vertex -2.500000e-001 -1.020000e+000  3.500000e+000
      vertex -2.500000e-001 -1.520000e+000  3.500000e+000
      vertex  2.500000e-001 -1.020000e+000  3.500000e+000
    endloop
  endfacet
  facet normal  0.000000e+000  0.000000e+000  1.000000e+000
    outer loop
      vertex  2.500000e-001 -1.020000e+000  3.500000e+000
      vertex -2.500000e-001 -1.520000e+000  3.500000e+000
      vertex  2.500000e-001 -1.520000e+000  3.500000e+000
    endloop
  endfacet
  facet normal  0.000000e+000  1.000000e+000  0.000000e+000
    outer loop
      vertex  2.500000e-001 -1.020000e+000 -2.783494e+000
      vertex -2.500000e-001 -1.020000e+000 -2.783494e+000
      vertex  2.500000e-001 -1.020000e+000  3.500000e+000
    endloop
  endfacet
  facet normal  0.000000e+000  1.000000e+000  0.000000e+000
    outer loop
      vertex  2.500000e-001 -1.020000e+000  3.500000e+000
      vertex -2.500000e-001 -1.020000e+000 -2.783494e+000
      vertex -2.500000e-001 -1.020000e+000  3.500000e+000
    endloop
  endfacet
  facet normal  0.000000e+000  8.660254e-001  5.000002e-001
    outer loop
      vertex -2.500000e-001 -8.950000e-001 -3.000000e+000
      vertex -2.500000e-001 -1.020000e+000 -2.783494e+000
      vertex  2.500000e-001 -8.950000e-001 -3.000000e+000
    endloop
  endfacet
  facet normal  0.000000e+000  8.660254e-001  5.000002e-001
    outer loop
      vertex  2.500000e-001 -8.950000e-001 -3.000000e+000
      vertex -2.500000e-001 -1.020000e+000 -2.783494e+000
      vertex  2.500000e-001 -1.020000e+000 -2.783494e+000
    endloop
  endfacet
  facet normal  0.000000e+000  1.000000e+000  0.000000e+000
    outer loop
      vertex -2.500000e-001 -8.950000e-001 -3.500000e+000
      vertex -2.500000e-001 -8.950000e-001 -3.000000e+000
      vertex  2.500000e-001 -8.950000e-001 -3.500000e+000
    endloop
  endfacet
  facet normal  0.000000e+000  1.000000e+000  -0.000000e+000
    outer loop
      vertex  2.500000e-001 -8.950000e-001 -3.500000e+000
      vertex -2.500000e-001 -8.950000e-001 -3.000000e+000
      vertex  2.500000e-001 -8.950000e-001 -3.000000e+000
    endloop
  endfacet
  facet normal  0.000000e+000  8.660254e-001 -5.000002e-001
    outer loop
      vertex -2.500000e-001 -1.020000e+000 -3.716506e+000
      vertex -2.500000e-001 -8.950000e-001 -3.500000e+000
      vertex  2.500000e-001 -1.020000e+000 -3.716506e+000
    endloop
  endfacet
  facet normal  0.000000e+000  8.660254e-001 -5.000002e-001
    outer loop
      vertex  2.500000e-001 -1.020000e+000 -3.716506e+000
      vertex -2.500000e-001 -8.950000e-001 -3.500000e+000
      vertex  2.500000e-001 -8.950000e-001 -3.500000e+000
    endloop
  endfacet
  facet normal  0.000000e+000  9.999999e-001  0.000000e+000
    outer loop
      vertex  2.500000e-001 -1.020000e+000 -2.600000e+001
      vertex -2.500000e-001 -1.020000e+000 -2.600000e+001
      vertex  2.500000e-001 -1.020000e+000 -3.716506e+000
    endloop
  endfacet
  facet normal  0.000000e+000  9.999999e-001  0.000000e+000
    outer loop
      vertex  2.500000e-001 -1.020000e+000 -3.716506e+000
      vertex -2.500000e-001 -1.020000e+000 -2.600000e+001
      vertex -2.500000e-001 -1.020000e+000 -3.716506e+000
    endloop
  endfacet
  facet normal  0.000000e+000  0.000000e+000 -1.000000e+000
    outer loop
      vertex -2.500000e-001 -1.520000e+000 -2.600000e+001
      vertex -2.500000e-001 -1.020000e+000 -2.600000e+001
      vertex  2.500000e-001 -1.520000e+000 -2.600000e+001
    endloop
  endfacet
  facet normal  0.000000e+000  0.000000e+000 -1.000000e+000
    outer loop
      vertex  2.500000e-001 -1.520000e+000 -2.600000e+001
      vertex -2.500000e-001 -1.020000e+000 -2.600000e+001
      vertex  2.500000e-001 -1.020000e+000 -2.600000e+001
    endloop
  endfacet
  facet normal  0.000000e+000 -1.000000e+000  0.000000e+000
    outer loop
      vertex  2.500000e-001 -1.520000e+000 -9.831872e+000
      vertex -2.500000e-001 -1.520000e+000 -9.831872e+000
      vertex  2.500000e-001 -1.520000e+000 -2.600000e+001
    endloop
  endfacet
  facet normal  0.000000e+000 -1.000000e+000  0.000000e+000
    outer loop
      vertex  2.500000e-001 -1.520000e+000 -2.600000e+001
      vertex -2.500000e-001 -1.520000e+000 -9.831872e+000
      vertex -2.500000e-001 -1.520000e+000 -2.600000e+001
    endloop
  endfacet
  facet normal  0.000000e+000 -1.000000e+000  0.000000e+000
    outer loop
      vertex  2.500000e-001 -1.520000e+000 -3.716506e+000
      vertex -2.500000e-001 -1.520000e+000 -3.716506e+000
      vertex  2.500000e-001 -1.520000e+000 -9.831872e+000
    endloop
  endfacet
  facet normal  0.000000e+000 -1.000000e+000  0.000000e+000
    outer loop
      vertex  2.500000e-001 -1.520000e+000 -9.831872e+000
      vertex -2.500000e-001 -1.520000e+000 -3.716506e+000
      vertex -2.500000e-001 -1.520000e+000 -9.831872e+000
    endloop
  endfacet
  facet normal  -0.000000e+000 -8.660254e-001 -5.000002e-001
    outer loop
      vertex -2.500000e-001 -1.520000e+000 -3.716506e+000
      vertex  2.500000e-001 -1.520000e+000 -3.716506e+000
      vertex -2.500000e-001 -1.645000e+000 -3.500000e+000
    endloop
  endfacet
  facet normal  0.000000e+000 -8.660254e-001 -5.000002e-001
    outer loop
      vertex -2.500000e-001 -1.645000e+000 -3.500000e+000
      vertex  2.500000e-001 -1.520000e+000 -3.716506e+000
      vertex  2.500000e-001 -1.645000e+000 -3.500000e+000
    endloop
  endfacet
  facet normal  0.000000e+000 -1.000000e+000  0.000000e+000
    outer loop
      vertex -2.500000e-001 -1.645000e+000 -3.500000e+000
      vertex  2.500000e-001 -1.645000e+000 -3.500000e+000
      vertex -2.500000e-001 -1.645000e+000 -3.000000e+000
    endloop
  endfacet
  facet normal  0.000000e+000 -1.000000e+000  0.000000e+000
    outer loop
      vertex -2.500000e-001 -1.645000e+000 -3.000000e+000
      vertex  2.500000e-001 -1.645000e+000 -3.500000e+000
      vertex  2.500000e-001 -1.645000e+000 -3.000000e+000
    endloop
  endfacet
  facet normal  0.000000e+000 -8.660254e-001  5.000002e-001
    outer loop
      vertex -2.500000e-001 -1.645000e+000 -3.000000e+000
      vertex  2.500000e-001 -1.645000e+000 -3.000000e+000
      vertex -2.500000e-001 -1.520000e+000 -2.783494e+000
    endloop
  endfacet
  facet normal  0.000000e+000 -8.660254e-001  5.000002e-001
    outer loop
      vertex -2.500000e-001 -1.520000e+000 -2.783494e+000
      vertex  2.500000e-001 -1.645000e+000 -3.000000e+000
      vertex  2.500000e-001 -1.520000e+000 -2.783494e+000
    endloop
  endfacet
  facet normal  0.000000e+000 -1.000000e+000  0.000000e+000
    outer loop
      vertex  2.500000e-001 -1.520000e+000  3.500000e+000
      vertex -2.500000e-001 -1.520000e+000  3.500000e+000
      vertex  2.500000e-001 -1.520000e+000 -2.783494e+000
    endloop
  endfacet
  facet normal  0.000000e+000 -1.000000e+000  0.000000e+000
    outer loop
      vertex  2.500000e-001 -1.520000e+000 -2.783494e+000
      vertex -2.500000e-001 -1.520000e+000  3.500000e+000
      vertex -2.500000e-001 -1.520000e+000 -2.783494e+000
    endloop
  endfacet
  facet normal  9.999999e-001  0.000000e+000  0.000000e+000
    outer loop
      vertex  2.500000e-001  1.400000e-001  1.750000e+000
      vertex  2.500000e-001  1.400000e-001 -3.500000e+000
      vertex  2.500000e-001  1.520000e+000 -3.345098e+000
    endloop
  endfacet
  facet normal  1.000000e+000  0.000000e+000  -0.000000e+000
    outer loop
      vertex  2.500000e-001  1.400000e-001  1.750000e+000
      vertex  2.500000e-001  1.520000e+000 -3.345098e+000
      vertex  2.500000e-001  1.520000e+000  1.400000e+000
    endloop
  endfacet
  facet normal  1.000000e+000  0.000000e+000  0.000000e+000
    outer loop
      vertex  2.500000e-001  1.400000e-001  1.750000e+000
      vertex  2.500000e-001  1.520000e+000  1.400000e+000
      vertex  2.500000e-001  1.353800e+000  1.705636e+000
    endloop
  endfacet
  facet normal  1.000000e+000  0.000000e+000  0.000000e+000
    outer loop
      vertex  2.500000e-001  1.400000e-001  1.750000e+000
      vertex  2.500000e-001  1.353800e+000  1.705636e+000
      vertex  2.500000e-001 -3.209291e-001  2.368455e+000
    endloop
  endfacet
  facet normal  1.000000e+000  0.000000e+000  0.000000e+000
    outer loop
      vertex  2.500000e-001 -3.209291e-001  2.368455e+000
      vertex  2.500000e-001  1.353800e+000  1.705636e+000
      vertex  2.500000e-001 -4.711999e-001  3.125000e+000
    endloop
  endfacet
  facet normal  1.000000e+000  -0.000000e+000  0.000000e+000
    outer loop
      vertex  2.500000e-001 -4.711999e-001  3.125000e+000
      vertex  2.500000e-001  1.353800e+000  1.705636e+000
      vertex  2.500000e-001  1.353800e+000  3.125000e+000
    endloop
  endfacet
  facet normal  1.000000e+000  0.000000e+000  0.000000e+000
    outer loop
      vertex  2.500000e-001  1.020000e+000 -2.450000e+001
      vertex  2.500000e-001  1.520000e+000 -2.450000e+001
      vertex  2.500000e-001  1.020000e+000 -3.500000e+000
    endloop
  endfacet
  facet normal  1.000000e+000  -0.000000e+000  0.000000e+000
    outer loop
      vertex  2.500000e-001  1.020000e+000 -3.500000e+000
      vertex  2.500000e-001  1.520000e+000 -2.450000e+001
      vertex  2.500000e-001  1.520000e+000 -3.345098e+000
    endloop
  endfacet
  facet normal  1.000000e+000  0.000000e+000  0.000000e+000
    outer loop
      vertex  2.500000e-001  1.020000e+000 -3.500000e+000
      vertex  2.500000e-001  1.520000e+000 -3.345098e+000
      vertex  2.500000e-001  1.400000e-001 -3.500000e+000
    endloop
  endfacet
  facet normal -1.000000e+000  0.000000e+000  0.000000e+000
    outer loop
      vertex -2.500000e-001  1.400000e-001  1.750000e+000
      vertex -2.500000e-001 -3.209291e-001  2.368455e+000
      vertex -2.500000e-001  1.353800e+000  1.705636e+000
    endloop
  endfacet
  facet normal -1.000000e+000  -0.000000e+000  -0.000000e+000
    outer loop
      vertex -2.500000e-001  1.400000e-001  1.750000e+000
      vertex -2.500000e-001  1.353800e+000  1.705636e+000
      vertex -2.500000e-001  1.520000e+000  1.400000e+000
    endloop
  endfacet
  facet normal -1.000000e+000  -0.000000e+000  -0.000000e+000
    outer loop
      vertex -2.500000e-001  1.400000e-001  1.750000e+000
      vertex -2.500000e-001  1.520000e+000  1.400000e+000
      vertex -2.500000e-001  1.520000e+000 -3.345098e+000
    endloop
  endfacet
  facet normal -1.000000e+000  -0.000000e+000  0.000000e+000
    outer loop
      vertex -2.500000e-001  1.400000e-001  1.750000e+000
      vertex -2.500000e-001  1.520000e+000 -3.345098e+000
      vertex -2.500000e-001  1.400000e-001 -3.500000e+000
    endloop
  endfacet
  facet normal -1.000000e+000  0.000000e+000  0.000000e+000
    outer loop
      vertex -2.500000e-001 -3.209291e-001  2.368455e+000
      vertex -2.500000e-001 -4.711999e-001  3.125000e+000
      vertex -2.500000e-001  1.353800e+000  1.705636e+000
    endloop
  endfacet
  facet normal -1.000000e+000  0.000000e+000  0.000000e+000
    outer loop
      vertex -2.500000e-001  1.353800e+000  1.705636e+000
      vertex -2.500000e-001 -4.711999e-001  3.125000e+000
      vertex -2.500000e-001  1.353800e+000  3.125000e+000
    endloop
  endfacet
  facet normal -1.000000e+000  0.000000e+000  0.000000e+000
    outer loop
      vertex -2.500000e-001  1.400000e-001 -3.500000e+000
      vertex -2.500000e-001  1.520000e+000 -3.345098e+000
      vertex -2.500000e-001  1.020000e+000 -3.500000e+000
    endloop
  endfacet
  facet normal -1.000000e+000  0.000000e+000  0.000000e+000
    outer loop
      vertex -2.500000e-001  1.020000e+000 -3.500000e+000
      vertex -2.500000e-001  1.520000e+000 -3.345098e+000
      vertex -2.500000e-001  1.520000e+000 -2.450000e+001
    endloop
  endfacet
  facet normal -1.000000e+000  0.000000e+000  0.000000e+000
    outer loop
      vertex -2.500000e-001  1.020000e+000 -3.500000e+000
      vertex -2.500000e-001  1.520000e+000 -2.450000e+001
      vertex -2.500000e-001  1.020000e+000 -2.450000e+001
    endloop
  endfacet
  facet normal  0.000000e+000  0.000000e+000  1.000000e+000
    outer loop
      vertex  2.500000e-001 -4.711999e-001  3.125000e+000
      vertex  2.500000e-001  1.353800e+000  3.125000e+000
      vertex -2.500000e-001 -4.711999e-001  3.125000e+000
    endloop
  endfacet
  facet normal  0.000000e+000  0.000000e+000  1.000000e+000
    outer loop
      vertex -2.500000e-001 -4.711999e-001  3.125000e+000
      vertex  2.500000e-001  1.353800e+000  3.125000e+000
      vertex -2.500000e-001  1.353800e+000  3.125000e+000
    endloop
  endfacet
  facet normal  0.000000e+000  1.000000e+000  -0.000000e+000
    outer loop
      vertex  2.500000e-001  1.353800e+000  3.125000e+000
      vertex  2.500000e-001  1.353800e+000  1.705636e+000
      vertex -2.500000e-001  1.353800e+000  3.125000e+000
    endloop
  endfacet
  facet normal  0.000000e+000  1.000000e+000  0.000000e+000
    outer loop
      vertex -2.500000e-001  1.353800e+000  3.125000e+000
      vertex  2.500000e-001  1.353800e+000  1.705636e+000
      vertex -2.500000e-001  1.353800e+000  1.705636e+000
    endloop
  endfacet
  facet normal  0.000000e+000  8.785120e-001  4.777204e-001
    outer loop
      vertex -2.500000e-001  1.353800e+000  1.705636e+000
      vertex  2.500000e-001  1.353800e+000  1.705636e+000
      vertex -2.500000e-001  1.520000e+000  1.400000e+000
    endloop
  endfacet
  facet normal  -0.000000e+000  8.785120e-001  4.777204e-001
    outer loop
      vertex -2.500000e-001  1.520000e+000  1.400000e+000
      vertex  2.500000e-001  1.353800e+000  1.705636e+000
      vertex  2.500000e-001  1.520000e+000  1.400000e+000
    endloop
  endfacet
  facet normal  0.000000e+000  1.000000e+000  -0.000000e+000
    outer loop
      vertex  2.500000e-001  1.520000e+000  1.400000e+000
      vertex  2.500000e-001  1.520000e+000 -3.345098e+000
      vertex -2.500000e-001  1.520000e+000  1.400000e+000
    endloop
  endfacet
  facet normal  0.000000e+000  1.000000e+000  0.000000e+000
    outer loop
      vertex -2.500000e-001  1.520000e+000  1.400000e+000
      vertex  2.500000e-001  1.520000e+000 -3.345098e+000
      vertex -2.500000e-001  1.520000e+000 -3.345098e+000
    endloop
  endfacet
  facet normal  0.000000e+000  1.000000e+000  -0.000000e+000
    outer loop
      vertex  2.500000e-001  1.520000e+000 -3.345098e+000
      vertex  2.500000e-001  1.520000e+000 -2.450000e+001
      vertex -2.500000e-001  1.520000e+000 -3.345098e+000
    endloop
  endfacet
  facet normal  0.000000e+000  1.000000e+000  0.000000e+000
    outer loop
      vertex -2.500000e-001  1.520000e+000 -3.345098e+000
      vertex  2.500000e-001  1.520000e+000 -2.450000e+001
      vertex -2.500000e-001  1.520000e+000 -2.450000e+001
    endloop
  endfacet
  facet normal  -0.000000e+000  0.000000e+000 -1.000000e+000
    outer loop
      vertex -2.500000e-001  1.520000e+000 -2.450000e+001
      vertex  2.500000e-001  1.520000e+000 -2.450000e+001
      vertex -2.500000e-001  1.020000e+000 -2.450000e+001
    endloop
  endfacet
  facet normal  0.000000e+000  0.000000e+000 -1.000000e+000
    outer loop
      vertex -2.500000e-001  1.020000e+000 -2.450000e+001
      vertex  2.500000e-001  1.520000e+000 -2.450000e+001
      vertex  2.500000e-001  1.020000e+000 -2.450000e+001
    endloop
  endfacet
  facet normal  0.000000e+000 -1.000000e+000  -0.000000e+000
    outer loop
      vertex  2.500000e-001  1.020000e+000 -2.450000e+001
      vertex  2.500000e-001  1.020000e+000 -3.500000e+000
      vertex -2.500000e-001  1.020000e+000 -2.450000e+001
    endloop
  endfacet
  facet normal  0.000000e+000 -1.000000e+000  0.000000e+000
    outer loop
      vertex -2.500000e-001  1.020000e+000 -2.450000e+001
      vertex  2.500000e-001  1.020000e+000 -3.500000e+000
      vertex -2.500000e-001  1.020000e+000 -3.500000e+000
    endloop
  endfacet
  facet normal  0.000000e+000  0.000000e+000 -1.000000e+000
    outer loop
      vertex  2.500000e-001  1.020000e+000 -3.500000e+000
      vertex  2.500000e-001  1.400000e-001 -3.500000e+000
      vertex -2.500000e-001  1.020000e+000 -3.500000e+000
    endloop
  endfacet
  facet normal  0.000000e+000  0.000000e+000 -1.000000e+000
    outer loop
      vertex -2.500000e-001  1.020000e+000 -3.500000e+000
      vertex  2.500000e-001  1.400000e-001 -3.500000e+000
      vertex -2.500000e-001  1.400000e-001 -3.500000e+000
    endloop
  endfacet
  facet normal  0.000000e+000 -1.000000e+000  -0.000000e+000
    outer loop
      vertex  2.500000e-001  1.400000e-001 -3.500000e+000
      vertex  2.500000e-001  1.400000e-001  1.750000e+000
      vertex -2.500000e-001  1.400000e-001 -3.500000e+000
    endloop
  endfacet
  facet normal  0.000000e+000 -1.000000e+000  0.000000e+000
    outer loop
      vertex -2.500000e-001  1.400000e-001 -3.500000e+000
      vertex  2.500000e-001  1.400000e-001  1.750000e+000
      vertex -2.500000e-001  1.400000e-001  1.750000e+000
    endloop
  endfacet
  facet normal  -0.000000e+000 -8.018086e-001 -5.975809e-001
    outer loop
      vertex -2.500000e-001  1.400000e-001  1.750000e+000
      vertex  2.500000e-001  1.400000e-001  1.750000e+000
      vertex -2.500000e-001 -3.209291e-001  2.368455e+000
    endloop
  endfacet
  facet normal  0.000000e+000 -8.018086e-001 -5.975809e-001
    outer loop
      vertex -2.500000e-001 -3.209291e-001  2.368455e+000
      vertex  2.500000e-001  1.400000e-001  1.750000e+000
      vertex  2.500000e-001 -3.209291e-001  2.368455e+000
    endloop
  endfacet
  facet normal  -0.000000e+000 -9.808387e-001 -1.948218e-001
    outer loop
      vertex -2.500000e-001 -3.209291e-001  2.368455e+000
      vertex  2.500000e-001 -3.209291e-001  2.368455e+000
      vertex -2.500000e-001 -4.711999e-001  3.125000e+000
    endloop
  endfacet
  facet normal  0.000000e+000 -9.808387e-001 -1.948218e-001
    outer loop
      vertex -2.500000e-001 -4.711999e-001  3.125000e+000
      vertex  2.500000e-001 -3.209291e-001  2.368455e+000
      vertex  2.500000e-001 -4.711999e-001  3.125000e+000
    endloop
  endfacet
  facet normal  0.000000e+000  0.000000e+000  1.000000e+000
    outer loop
      vertex  2.850066e+000  5.358413e-001  1.000000e+000
      vertex  2.193956e+000  1.198564e+000  1.000000e+000
      vertex  2.620711e+000 -1.241722e+000  1.000000e+000
    endloop
  endfacet
  facet normal  0.000000e+000  0.000000e+000  1.000000e+000
    outer loop
      vertex  2.620711e+000 -1.241722e+000  1.000000e+000
      vertex  2.193956e+000  1.198564e+000  1.000000e+000
      vertex  2.398874e+000 -7.038488e-001  1.000000e+000
    endloop
  endfacet
  facet normal  0.000000e+000  0.000000e+000  9.999999e-001
    outer loop
      vertex  2.620711e+000 -1.241722e+000  1.000000e+000
      vertex  2.398874e+000 -7.038488e-001  1.000000e+000
      vertex  1.390334e+000 -2.544989e+000  1.000000e+000
    endloop
  endfacet
  facet normal  0.000000e+000  -0.000000e+000  9.999999e-001
    outer loop
      vertex  1.390334e+000 -2.544989e+000  1.000000e+000
      vertex  2.398874e+000 -7.038488e-001  1.000000e+000
      vertex  1.198564e+000 -2.193956e+000  1.000000e+000
    endloop
  endfacet
  facet normal  0.000000e+000  0.000000e+000  1.000000e+000
    outer loop
      vertex  1.390334e+000 -2.544989e+000  1.000000e+000
      vertex  1.198564e+000 -2.193956e+000  1.000000e+000
      vertex -3.711034e-001 -2.876158e+000  1.000000e+000
    endloop
  endfacet
  facet normal  0.000000e+000  -0.000000e+000  1.000000e+000
    outer loop
      vertex -3.711034e-001 -2.876158e+000  1.000000e+000
      vertex  1.198564e+000 -2.193956e+000  1.000000e+000
      vertex -7.038488e-001 -2.398874e+000  1.000000e+000
    endloop
  endfacet
  facet normal  0.000000e+000  0.000000e+000  1.000000e+000
    outer loop
      vertex -3.711034e-001 -2.876158e+000  1.000000e+000
      vertex -7.038488e-001 -2.398874e+000  1.000000e+000
      vertex -1.990792e+000 -2.108731e+000  1.000000e+000
    endloop
  endfacet
  facet normal  -0.000000e+000  -0.000000e+000  1.000000e+000
    outer loop
      vertex -1.990792e+000 -2.108731e+000  1.000000e+000
      vertex -7.038488e-001 -2.398874e+000  1.000000e+000
      vertex -2.193956e+000 -1.198564e+000  1.000000e+000
    endloop
  endfacet
  facet normal  0.000000e+000  0.000000e+000  9.999999e-001
    outer loop
      vertex -1.990792e+000 -2.108731e+000  1.000000e+000
      vertex -2.193956e+000 -1.198564e+000  1.000000e+000
      vertex -2.850066e+000 -5.358413e-001  1.000000e+000
    endloop
  endfacet
  facet normal  0.000000e+000  0.000000e+000  1.000000e+000
    outer loop
      vertex -2.850066e+000 -5.358413e-001  1.000000e+000
      vertex -2.193956e+000 -1.198564e+000  1.000000e+000
      vertex -2.620711e+000  1.241722e+000  1.000000e+000
    endloop
  endfacet
  facet normal  0.000000e+000  0.000000e+000  1.000000e+000
    outer loop
      vertex -2.620711e+000  1.241722e+000  1.000000e+000
      vertex -2.193956e+000 -1.198564e+000  1.000000e+000
      vertex -2.398874e+000  7.038488e-001  1.000000e+000
    endloop
  endfacet
  facet normal  0.000000e+000  -0.000000e+000  9.999999e-001
    outer loop
      vertex -2.620711e+000  1.241722e+000  1.000000e+000
      vertex -2.398874e+000  7.038488e-001  1.000000e+000
      vertex -1.390334e+000  2.544989e+000  1.000000e+000
    endloop
  endfacet
  facet normal  0.000000e+000  0.000000e+000  9.999999e-001
    outer loop
      vertex -1.390334e+000  2.544989e+000  1.000000e+000
      vertex -2.398874e+000  7.038488e-001  1.000000e+000
      vertex -1.198564e+000  2.193956e+000  1.000000e+000
    endloop
  endfacet
  facet normal  0.000000e+000  -0.000000e+000  1.000000e+000
    outer loop
      vertex -1.390334e+000  2.544989e+000  1.000000e+000
      vertex -1.198564e+000  2.193956e+000  1.000000e+000
      vertex  3.711034e-001  2.876158e+000  1.000000e+000
    endloop
  endfacet
  facet normal  0.000000e+000  0.000000e+000  1.000000e+000
    outer loop
      vertex  3.711034e-001  2.876158e+000  1.000000e+000
      vertex -1.198564e+000  2.193956e+000  1.000000e+000
      vertex  7.038488e-001  2.398874e+000  1.000000e+000
    endloop
  endfacet
  facet normal  -0.000000e+000  -0.000000e+000  1.000000e+000
    outer loop
      vertex  3.711034e-001  2.876158e+000  1.000000e+000
      vertex  7.038488e-001  2.398874e+000  1.000000e+000
      vertex  1.990792e+000  2.108731e+000  1.000000e+000
    endloop
  endfacet
  facet normal  0.000000e+000  0.000000e+000  1.000000e+000
    outer loop
      vertex  1.990792e+000  2.108731e+000  1.000000e+000
      vertex  7.038488e-001  2.398874e+000  1.000000e+000
      vertex  2.193956e+000  1.198564e+000  1.000000e+000
    endloop
  endfacet
  facet normal  -0.000000e+000  -0.000000e+000  9.999999e-001
    outer loop
      vertex  1.990792e+000  2.108731e+000  1.000000e+000
      vertex  2.193956e+000  1.198564e+000  1.000000e+000
      vertex  2.850066e+000  5.358413e-001  1.000000e+000
    endloop
  endfacet
  facet normal  0.000000e+000  0.000000e+000 -9.999999e-001
    outer loop
      vertex  2.850066e+000  5.358413e-001  0.000000e+000
      vertex -2.620711e+000  1.241722e+000  0.000000e+000
      vertex  1.990792e+000  2.108731e+000  0.000000e+000
    endloop
  endfacet
  facet normal  -0.000000e+000  0.000000e+000 -1.000000e+000
    outer loop
      vertex  1.990792e+000  2.108731e+000  0.000000e+000
      vertex -2.620711e+000  1.241722e+000  0.000000e+000
      vertex -1.390334e+000  2.544989e+000  0.000000e+000
    endloop
  endfacet
  facet normal  0.000000e+000  0.000000e+000 -1.000000e+000
    outer loop
      vertex  1.990792e+000  2.108731e+000  0.000000e+000
      vertex -1.390334e+000  2.544989e+000  0.000000e+000
      vertex  3.711034e-001  2.876158e+000  0.000000e+000
    endloop
  endfacet
  facet normal  0.000000e+000  0.000000e+000 -1.000000e+000
    outer loop
      vertex -3.711034e-001 -2.876158e+000  0.000000e+000
      vertex -1.990792e+000 -2.108731e+000  0.000000e+000
      vertex  1.390334e+000 -2.544989e+000  0.000000e+000
    endloop
  endfacet
  facet normal  0.000000e+000  0.000000e+000 -1.000000e+000
    outer loop
      vertex  1.390334e+000 -2.544989e+000  0.000000e+000
      vertex -1.990792e+000 -2.108731e+000  0.000000e+000
      vertex -2.850066e+000 -5.358413e-001  0.000000e+000
    endloop
  endfacet
  facet normal  0.000000e+000  0.000000e+000 -9.999999e-001
    outer loop
      vertex  1.390334e+000 -2.544989e+000  0.000000e+000
      vertex -2.850066e+000 -5.358413e-001  0.000000e+000
      vertex  2.620711e+000 -1.241722e+000  0.000000e+000
    endloop
  endfacet
  facet normal  0.000000e+000  0.000000e+000 -1.000000e+000
    outer loop
      vertex  2.620711e+000 -1.241722e+000  0.000000e+000
      vertex -2.850066e+000 -5.358413e-001  0.000000e+000
      vertex -2.620711e+000  1.241722e+000  0.000000e+000
    endloop
  endfacet
  facet normal  0.000000e+000  0.000000e+000 -1.000000e+000
    outer loop
      vertex  2.620711e+000 -1.241722e+000  0.000000e+000
      vertex -2.620711e+000  1.241722e+000  0.000000e+000
      vertex  2.850066e+000  5.358413e-001  0.000000e+000
    endloop
  endfacet
  facet normal  3.185984e-001 -2.566371e-001  9.124869e-001
    outer loop
      vertex -7.338844e-017  1.343366e-016  8.700000e+000
      vertex  8.475126e-001 -1.551361e+000  7.967767e+000
      vertex  1.696260e+000 -4.976963e-001  7.967767e+000
    endloop
  endfacet
  facet normal  4.067529e-001  4.381323e-002  9.124869e-001
    outer loop
      vertex -7.338844e-017  1.343366e-016  8.700000e+000
      vertex  1.696260e+000 -4.976963e-001  7.967767e+000
      vertex  1.551361e+000  8.475126e-001  7.967767e+000
    endloop
  endfacet
  facet normal  2.566371e-001  3.185984e-001  9.124869e-001
    outer loop
      vertex -7.338844e-017  1.343366e-016  8.700000e+000
      vertex  1.551361e+000  8.475126e-001  7.967767e+000
      vertex  4.976963e-001  1.696260e+000  7.967767e+000
    endloop
  endfacet
  facet normal -4.381323e-002  4.067529e-001  9.124869e-001
    outer loop
      vertex -7.338844e-017  1.343366e-016  8.700000e+000
      vertex  4.976963e-001  1.696260e+000  7.967767e+000
      vertex -8.475126e-001  1.551361e+000  7.967767e+000
    endloop
  endfacet
  facet normal  7.273293e-001 -5.858777e-001  3.574067e-001
    outer loop
      vertex  8.475126e-001 -1.551361e+000  7.967767e+000
      vertex  1.198564e+000 -2.193956e+000  6.200000e+000
      vertex  1.696260e+000 -4.976963e-001  7.967767e+000
    endloop
  endfacet
  facet normal  7.273292e-001 -5.858777e-001  3.574067e-001
    outer loop
      vertex  1.696260e+000 -4.976963e-001  7.967767e+000
      vertex  1.198564e+000 -2.193956e+000  6.200000e+000
      vertex  2.398874e+000 -7.038488e-001  6.200000e+000
    endloop
  endfacet
  facet normal  9.285775e-001  1.000214e-001  3.574068e-001
    outer loop
      vertex  1.696260e+000 -4.976963e-001  7.967767e+000
      vertex  2.398874e+000 -7.038488e-001  6.200000e+000
      vertex  1.551361e+000  8.475126e-001  7.967767e+000
    endloop
  endfacet
  facet normal  9.285775e-001  1.000214e-001  3.574067e-001
    outer loop
      vertex  1.551361e+000  8.475126e-001  7.967767e+000
      vertex  2.398874e+000 -7.038488e-001  6.200000e+000
      vertex  2.193956e+000  1.198564e+000  6.200000e+000
    endloop
  endfacet
  facet normal  5.858777e-001  7.273293e-001  3.574067e-001
    outer loop
      vertex  1.551361e+000  8.475126e-001  7.967767e+000
      vertex  2.193956e+000  1.198564e+000  6.200000e+000
      vertex  4.976963e-001  1.696260e+000  7.967767e+000
    endloop
  endfacet
  facet normal  5.858777e-001  7.273292e-001  3.574067e-001
    outer loop
      vertex  4.976963e-001  1.696260e+000  7.967767e+000
      vertex  2.193956e+000  1.198564e+000  6.200000e+000
      vertex  7.038488e-001  2.398874e+000  6.200000e+000
    endloop
  endfacet
  facet normal -1.000214e-001  9.285775e-001  3.574068e-001
    outer loop
      vertex  4.976963e-001  1.696260e+000  7.967767e+000
      vertex  7.038488e-001  2.398874e+000  6.200000e+000
      vertex -8.475126e-001  1.551361e+000  7.967767e+000
    endloop
  endfacet
  facet normal -1.000214e-001  9.285775e-001  3.574067e-001
    outer loop
      vertex -8.475126e-001  1.551361e+000  7.967767e+000
      vertex  7.038488e-001  2.398874e+000  6.200000e+000
      vertex -1.198564e+000  2.193956e+000  6.200000e+000
    endloop
  endfacet
  facet normal -1.070951e-001  9.942487e-001  0.000000e+000
    outer loop
      vertex -1.198564e+000  2.193956e+000  1.000000e+000
      vertex -1.198564e+000  2.193956e+000  6.200000e+000
      vertex  7.038488e-001  2.398874e+000  1.000000e+000
    endloop
  endfacet
  facet normal -1.070951e-001  9.942487e-001  0.000000e+000
    outer loop
      vertex  7.038488e-001  2.398874e+000  1.000000e+000
      vertex -1.198564e+000  2.193956e+000  6.200000e+000
      vertex  7.038488e-001  2.398874e+000  6.200000e+000
    endloop
  endfacet
  facet normal  6.273124e-001  7.787677e-001  0.000000e+000
    outer loop
      vertex  7.038488e-001  2.398874e+000  1.000000e+000
      vertex  7.038488e-001  2.398874e+000  6.200000e+000
      vertex  2.193956e+000  1.198564e+000  1.000000e+000
    endloop
  endfacet
  facet normal  6.273124e-001  7.787677e-001  -0.000000e+000
    outer loop
      vertex  2.193956e+000  1.198564e+000  1.000000e+000
      vertex  7.038488e-001  2.398874e+000  6.200000e+000
      vertex  2.193956e+000  1.198564e+000  6.200000e+000
    endloop
  endfacet
  facet normal  9.942487e-001  1.070951e-001  0.000000e+000
    outer loop
      vertex  2.193956e+000  1.198564e+000  1.000000e+000
      vertex  2.193956e+000  1.198564e+000  6.200000e+000
      vertex  2.398874e+000 -7.038488e-001  1.000000e+000
    endloop
  endfacet
  facet normal  9.942487e-001  1.070951e-001  -0.000000e+000
    outer loop
      vertex  2.398874e+000 -7.038488e-001  1.000000e+000
      vertex  2.193956e+000  1.198564e+000  6.200000e+000
      vertex  2.398874e+000 -7.038488e-001  6.200000e+000
    endloop
  endfacet
  facet normal  7.787677e-001 -6.273124e-001  0.000000e+000
    outer loop
      vertex  2.398874e+000 -7.038488e-001  1.000000e+000
      vertex  2.398874e+000 -7.038488e-001  6.200000e+000
      vertex  1.198564e+000 -2.193956e+000  1.000000e+000
    endloop
  endfacet
  facet normal  7.787677e-001 -6.273124e-001  0.000000e+000
    outer loop
      vertex  1.198564e+000 -2.193956e+000  1.000000e+000
      vertex  2.398874e+000 -7.038488e-001  6.200000e+000
      vertex  1.198564e+000 -2.193956e+000  6.200000e+000
    endloop
  endfacet
  facet normal -1.847729e-001  9.827812e-001  0.000000e+000
    outer loop
      vertex -1.390334e+000  2.544989e+000  0.000000e+000
      vertex -1.390334e+000  2.544989e+000  1.000000e+000
      vertex  3.711034e-001  2.876158e+000  0.000000e+000
    endloop
  endfacet
  facet normal -1.847729e-001  9.827812e-001  0.000000e+000
    outer loop
      vertex  3.711034e-001  2.876158e+000  0.000000e+000
      vertex -1.390334e+000  2.544989e+000  1.000000e+000
      vertex  3.711034e-001  2.876158e+000  1.000000e+000
    endloop
  endfacet
  facet normal  4.281799e-001  9.036934e-001  0.000000e+000
    outer loop
      vertex  3.711034e-001  2.876158e+000  0.000000e+000
      vertex  3.711034e-001  2.876158e+000  1.000000e+000
      vertex  1.990792e+000  2.108731e+000  0.000000e+000
    endloop
  endfacet
  facet normal  4.281799e-001  9.036934e-001  -0.000000e+000
    outer loop
      vertex  1.990792e+000  2.108731e+000  0.000000e+000
      vertex  3.711034e-001  2.876158e+000  1.000000e+000
      vertex  1.990792e+000  2.108731e+000  1.000000e+000
    endloop
  endfacet
  facet normal  8.775826e-001  4.794256e-001  0.000000e+000
    outer loop
      vertex  1.990792e+000  2.108731e+000  0.000000e+000
      vertex  1.990792e+000  2.108731e+000  1.000000e+000
      vertex  2.850066e+000  5.358413e-001  0.000000e+000
    endloop
  endfacet
  facet normal  8.775826e-001  4.794256e-001  -0.000000e+000
    outer loop
      vertex  2.850066e+000  5.358413e-001  0.000000e+000
      vertex  1.990792e+000  2.108731e+000  1.000000e+000
      vertex  2.850066e+000  5.358413e-001  1.000000e+000
    endloop
  endfacet
  facet normal  9.917784e-001 -1.279667e-001  0.000000e+000
    outer loop
      vertex  2.850066e+000  5.358413e-001  0.000000e+000
      vertex  2.850066e+000  5.358413e-001  1.000000e+000
      vertex  2.620711e+000 -1.241722e+000  0.000000e+000
    endloop
  endfacet
  facet normal  9.917784e-001 -1.279667e-001  0.000000e+000
    outer loop
      vertex  2.620711e+000 -1.241722e+000  0.000000e+000
      vertex  2.850066e+000  5.358413e-001  1.000000e+000
      vertex  2.620711e+000 -1.241722e+000  1.000000e+000
    endloop
  endfacet
  facet normal  7.271487e-001 -6.864800e-001  0.000000e+000
    outer loop
      vertex  2.620711e+000 -1.241722e+000  0.000000e+000
      vertex  2.620711e+000 -1.241722e+000  1.000000e+000
      vertex  1.390334e+000 -2.544989e+000  0.000000e+000
    endloop
  endfacet
  facet normal  7.271487e-001 -6.864800e-001  0.000000e+000
    outer loop
      vertex  1.390334e+000 -2.544989e+000  0.000000e+000
      vertex  2.620711e+000 -1.241722e+000  1.000000e+000
      vertex  1.390334e+000 -2.544989e+000  1.000000e+000
    endloop
  endfacet
  facet normal -3.185984e-001  2.566371e-001  9.124869e-001
    outer loop
      vertex -7.338844e-017  1.343366e-016  8.700000e+000
      vertex -8.475126e-001  1.551361e+000  7.967767e+000
      vertex -1.696260e+000  4.976963e-001  7.967767e+000
    endloop
  endfacet
  facet normal -4.067529e-001 -4.381323e-002  9.124869e-001
    outer loop
      vertex -7.338844e-017  1.343366e-016  8.700000e+000
      vertex -1.696260e+000  4.976963e-001  7.967767e+000
      vertex -1.551361e+000 -8.475126e-001  7.967767e+000
    endloop
  endfacet
  facet normal -2.566371e-001 -3.185984e-001  9.124869e-001
    outer loop
      vertex -7.338844e-017  1.343366e-016  8.700000e+000
      vertex -1.551361e+000 -8.475126e-001  7.967767e+000
      vertex -4.976963e-001 -1.696260e+000  7.967767e+000
    endloop
  endfacet
  facet normal  4.381323e-002 -4.067529e-001  9.124869e-001
    outer loop
      vertex -7.338844e-017  1.343366e-016  8.700000e+000
      vertex -4.976963e-001 -1.696260e+000  7.967767e+000
      vertex  8.475126e-001 -1.551361e+000  7.967767e+000
    endloop
  endfacet
  facet normal -7.273293e-001  5.858777e-001  3.574067e-001
    outer loop
      vertex -8.475126e-001  1.551361e+000  7.967767e+000
      vertex -1.198564e+000  2.193956e+000  6.200000e+000
      vertex -1.696260e+000  4.976963e-001  7.967767e+000
    endloop
  endfacet
  facet normal -7.273292e-001  5.858777e-001  3.574067e-001
    outer loop
      vertex -1.696260e+000  4.976963e-001  7.967767e+000
      vertex -1.198564e+000  2.193956e+000  6.200000e+000
      vertex -2.398874e+000  7.038488e-001  6.200000e+000
    endloop
  endfacet
  facet normal -9.285775e-001 -1.000214e-001  3.574068e-001
    outer loop
      vertex -1.696260e+000  4.976963e-001  7.967767e+000
      vertex -2.398874e+000  7.038488e-001  6.200000e+000
      vertex -1.551361e+000 -8.475126e-001  7.967767e+000
    endloop
  endfacet
  facet normal -9.285775e-001 -1.000214e-001  3.574067e-001
    outer loop
      vertex -1.551361e+000 -8.475126e-001  7.967767e+000
      vertex -2.398874e+000  7.038488e-001  6.200000e+000
      vertex -2.193956e+000 -1.198564e+000  6.200000e+000
    endloop
  endfacet
  facet normal -5.858777e-001 -7.273293e-001  3.574067e-001
    outer loop
      vertex -1.551361e+000 -8.475126e-001  7.967767e+000
      vertex -2.193956e+000 -1.198564e+000  6.200000e+000
      vertex -4.976963e-001 -1.696260e+000  7.967767e+000
    endloop
  endfacet
  facet normal -5.858777e-001 -7.273292e-001  3.574067e-001
    outer loop
      vertex -4.976963e-001 -1.696260e+000  7.967767e+000
      vertex -2.193956e+000 -1.198564e+000  6.200000e+000
      vertex -7.038488e-001 -2.398874e+000  6.200000e+000
    endloop
  endfacet
  facet normal  1.000214e-001 -9.285775e-001  3.574068e-001
    outer loop
      vertex -4.976963e-001 -1.696260e+000  7.967767e+000
      vertex -7.038488e-001 -2.398874e+000  6.200000e+000
      vertex  8.475126e-001 -1.551361e+000  7.967767e+000
    endloop
  endfacet
  facet normal  1.000214e-001 -9.285775e-001  3.574067e-001
    outer loop
      vertex  8.475126e-001 -1.551361e+000  7.967767e+000
      vertex -7.038488e-001 -2.398874e+000  6.200000e+000
      vertex  1.198564e+000 -2.193956e+000  6.200000e+000
    endloop
  endfacet
  facet normal  1.070951e-001 -9.942487e-001  0.000000e+000
    outer loop
      vertex  1.198564e+000 -2.193956e+000  1.000000e+000
      vertex  1.198564e+000 -2.193956e+000  6.200000e+000
      vertex -7.038488e-001 -2.398874e+000  1.000000e+000
    endloop
  endfacet
  facet normal  1.070951e-001 -9.942487e-001  0.000000e+000
    outer loop
      vertex -7.038488e-001 -2.398874e+000  1.000000e+000
      vertex  1.198564e+000 -2.193956e+000  6.200000e+000
      vertex -7.038488e-001 -2.398874e+000  6.200000e+000
    endloop
  endfacet
  facet normal -6.273124e-001 -7.787677e-001  -0.000000e+000
    outer loop
      vertex -7.038488e-001 -2.398874e+000  1.000000e+000
      vertex -7.038488e-001 -2.398874e+000  6.200000e+000
      vertex -2.193956e+000 -1.198564e+000  1.000000e+000
    endloop
  endfacet
  facet normal -6.273124e-001 -7.787677e-001  0.000000e+000
    outer loop
      vertex -2.193956e+000 -1.198564e+000  1.000000e+000
      vertex -7.038488e-001 -2.398874e+000  6.200000e+000
      vertex -2.193956e+000 -1.198564e+000  6.200000e+000
    endloop
  endfacet
  facet normal -9.942487e-001 -1.070951e-001  -0.000000e+000
    outer loop
      vertex -2.193956e+000 -1.198564e+000  1.000000e+000
      vertex -2.193956e+000 -1.198564e+000  6.200000e+000
      vertex -2.398874e+000  7.038488e-001  1.000000e+000
    endloop
  endfacet
  facet normal -9.942487e-001 -1.070951e-001  0.000000e+000
    outer loop
      vertex -2.398874e+000  7.038488e-001  1.000000e+000
      vertex -2.193956e+000 -1.198564e+000  6.200000e+000
      vertex -2.398874e+000  7.038488e-001  6.200000e+000
    endloop
  endfacet
  facet normal -7.787677e-001  6.273124e-001  0.000000e+000
    outer loop
      vertex -2.398874e+000  7.038488e-001  1.000000e+000
      vertex -2.398874e+000  7.038488e-001  6.200000e+000
      vertex -1.198564e+000  2.193956e+000  1.000000e+000
    endloop
  endfacet
  facet normal -7.787677e-001  6.273124e-001  0.000000e+000
    outer loop
      vertex -1.198564e+000  2.193956e+000  1.000000e+000
      vertex -2.398874e+000  7.038488e-001  6.200000e+000
      vertex -1.198564e+000  2.193956e+000  6.200000e+000
    endloop
  endfacet
  facet normal  1.847729e-001 -9.827812e-001  0.000000e+000
    outer loop
      vertex  1.390334e+000 -2.544989e+000  0.000000e+000
      vertex  1.390334e+000 -2.544989e+000  1.000000e+000
      vertex -3.711034e-001 -2.876158e+000  0.000000e+000
    endloop
  endfacet
  facet normal  1.847729e-001 -9.827812e-001  0.000000e+000
    outer loop
      vertex -3.711034e-001 -2.876158e+000  0.000000e+000
      vertex  1.390334e+000 -2.544989e+000  1.000000e+000
      vertex -3.711034e-001 -2.876158e+000  1.000000e+000
    endloop
  endfacet
  facet normal -4.281799e-001 -9.036934e-001  -0.000000e+000
    outer loop
      vertex -3.711034e-001 -2.876158e+000  0.000000e+000
      vertex -3.711034e-001 -2.876158e+000  1.000000e+000
      vertex -1.990792e+000 -2.108731e+000  0.000000e+000
    endloop
  endfacet
  facet normal -4.281799e-001 -9.036934e-001  0.000000e+000
    outer loop
      vertex -1.990792e+000 -2.108731e+000  0.000000e+000
      vertex -3.711034e-001 -2.876158e+000  1.000000e+000
      vertex -1.990792e+000 -2.108731e+000  1.000000e+000
    endloop
  endfacet
  facet normal -8.775826e-001 -4.794256e-001  -0.000000e+000
    outer loop
      vertex -1.990792e+000 -2.108731e+000  0.000000e+000
      vertex -1.990792e+000 -2.108731e+000  1.000000e+000
      vertex -2.850066e+000 -5.358413e-001  0.000000e+000
    endloop
  endfacet
  facet normal -8.775826e-001 -4.794256e-001  0.000000e+000
    outer loop
      vertex -2.850066e+000 -5.358413e-001  0.000000e+000
      vertex -1.990792e+000 -2.108731e+000  1.000000e+000
      vertex -2.850066e+000 -5.358413e-001  1.000000e+000
    endloop
  endfacet
  facet normal -9.917784e-001  1.279667e-001  0.000000e+000
    outer loop
      vertex -2.850066e+000 -5.358413e-001  0.000000e+000
      vertex -2.850066e+000 -5.358413e-001  1.000000e+000
      vertex -2.620711e+000  1.241722e+000  0.000000e+000
    endloop
  endfacet
  facet normal -9.917784e-001  1.279667e-001  0.000000e+000
    outer loop
      vertex -2.620711e+000  1.241722e+000  0.000000e+000
      vertex -2.850066e+000 -5.358413e-001  1.000000e+000
      vertex -2.620711e+000  1.241722e+000  1.000000e+000
    endloop
  endfacet
  facet normal -7.271487e-001  6.864800e-001  0.000000e+000
    outer loop
      vertex -2.620711e+000  1.241722e+000  0.000000e+000
      vertex -2.620711e+000  1.241722e+000  1.000000e+000
      vertex -1.390334e+000  2.544989e+000  0.000000e+000
    endloop
  endfacet
  facet normal -7.271487e-001  6.864800e-001  0.000000e+000
    outer loop
      vertex -1.390334e+000  2.544989e+000  0.000000e+000
      vertex -2.620711e+000  1.241722e+000  1.000000e+000
      vertex -1.390334e+000  2.544989e+000  1.000000e+000
    endloop
  endfacet
endsolid CATIA STL
